<svg aria-hidden="true" style="position: absolute; width: 0; height: 0; overflow: hidden;" version="1.1" xmlns="http://www.w3.org/2000/svg" xmlns:xlink="http://www.w3.org/1999/xlink">
<defs>
<symbol id="icon-logo" viewBox="0 0 56 32">
<path fill="#fff" style="fill: var(--color1, #fff)" d="M2.667 13.333c-1.473 0-2.667 1.194-2.667 2.667s1.194 2.667 2.667 2.667v-5.333zM25.778 16c0 7.855 6.368 14.222 14.222 14.222s14.222-6.367 14.222-14.222c0-7.855-6.367-14.222-14.222-14.222s-14.222 6.367-14.222 14.222zM2.667 18.667h37.333v-5.333h-37.333v5.333z"></path>
</symbol>
<symbol id="icon-advantage-coffee" viewBox="0 0 32 32">
<path fill="none" stroke="#ff7500" style="stroke: var(--color1, #ff7500)" stroke-linejoin="round" stroke-linecap="round" stroke-miterlimit="4" stroke-width="1.3061" d="M9.428 19.896h13.944M9.203 17.272h14.393M24.076 11.679l-1.050 12.249c-0.116 1.355-0.174 2.032-0.475 2.545-0.265 0.451-0.659 0.813-1.131 1.039-0.536 0.256-1.216 0.256-2.576 0.256h-4.887c-1.36 0-2.040-0-2.576-0.256-0.472-0.226-0.866-0.587-1.131-1.039-0.301-0.513-0.359-1.19-0.475-2.544l-1.050-12.249c-0.068-0.791-0.102-1.186 0.031-1.491 0.117-0.268 0.32-0.489 0.577-0.629 0.293-0.159 0.689-0.159 1.483-0.159h11.169c0.794 0 1.191 0 1.483 0.159 0.257 0.139 0.46 0.361 0.577 0.629 0.133 0.305 0.099 0.7 0.031 1.491zM23.283 9.401h-13.768c-1.183 0-1.774 0-2.118-0.248-0.303-0.218-0.498-0.555-0.538-0.927-0.044-0.421 0.249-0.935 0.836-1.962 0.438-0.767 0.658-1.151 0.965-1.43 0.275-0.25 0.6-0.438 0.953-0.553 0.395-0.128 0.837-0.128 1.721-0.128h10.128c0.884 0 1.325 0 1.721 0.128 0.353 0.115 0.678 0.303 0.953 0.553 0.308 0.279 0.527 0.663 0.965 1.43 0.587 1.027 0.88 1.54 0.836 1.961-0.039 0.371-0.234 0.708-0.537 0.927-0.344 0.248-0.935 0.248-2.118 0.248z"></path>
</symbol>
<symbol id="icon-advantage-car" viewBox="0 0 32 32">
<path fill="none" stroke="#ff6b00" style="stroke: var(--color2, #ff6b00)" stroke-linejoin="round" stroke-linecap="round" stroke-miterlimit="4" stroke-width="1.3333" d="M4 14.667h24M26.667 22.667v-7.095c0-0.338 0-0.507-0.021-0.673-0.019-0.148-0.050-0.294-0.093-0.436-0.048-0.16-0.117-0.315-0.254-0.624l-2.062-4.639c-0.408-0.917-0.611-1.376-0.934-1.712-0.285-0.297-0.634-0.524-1.021-0.664-0.438-0.158-0.94-0.158-1.944-0.158h-8.677c-1.004 0-1.505 0-1.943 0.158-0.387 0.14-0.737 0.367-1.021 0.664-0.322 0.336-0.526 0.795-0.934 1.712l-2.062 4.639c-0.137 0.309-0.206 0.463-0.255 0.624-0.043 0.142-0.074 0.288-0.092 0.436-0.021 0.166-0.021 0.335-0.021 0.673v7.095M26.667 22.667h-21.333M26.667 22.667v1.333c0 1.473-1.194 2.667-2.667 2.667s-2.667-1.194-2.667-2.667v-1.333M5.333 22.667v1.333c0 1.473 1.194 2.667 2.667 2.667s2.667-1.194 2.667-2.667v-1.333"></path>
</symbol>
<symbol id="icon-advantage-bank" viewBox="0 0 32 32">
<path fill="#ff6b00" style="fill: var(--color2, #ff6b00)" d="M15.22 3.193c0.508-0.156 1.052-0.156 1.56 0l3.981 1.224c2.077 0.638 4.049 1.577 5.855 2.786 1.404 0.94 0.739 3.131-0.951 3.131h-19.328c-1.69 0-2.356-2.19-0.951-3.131 1.805-1.209 3.778-2.147 5.855-2.786l3.981-1.224zM16.192 5.105c-0.125-0.038-0.259-0.038-0.385 0l-3.981 1.224c-1.574 0.484-3.083 1.157-4.492 2.004h17.331c-1.41-0.847-2.918-1.521-4.492-2.005l-3.981-1.224z"></path>
<path fill="#ff6b00" style="fill: var(--color2, #ff6b00)" d="M5.667 28c0-0.552 0.448-1 1-1h18.667c0.552 0 1 0.448 1 1s-0.448 1-1 1h-18.667c-0.552 0-1-0.448-1-1z"></path>
<path fill="#ff6b00" style="fill: var(--color2, #ff6b00)" d="M8.333 22.667c0 0.552 0.448 1 1 1s1-0.448 1-1v-8c0-0.552-0.448-1-1-1s-1 0.448-1 1v8z"></path>
<path fill="#ff6b00" style="fill: var(--color2, #ff6b00)" d="M16 23.667c-0.552 0-1-0.448-1-1v-8c0-0.552 0.448-1 1-1s1 0.448 1 1v8c0 0.552-0.448 1-1 1z"></path>
<path fill="#ff6b00" style="fill: var(--color2, #ff6b00)" d="M21.667 22.667c0 0.552 0.448 1 1 1s1-0.448 1-1v-8c0-0.552-0.448-1-1-1s-1 0.448-1 1v8z"></path>
</symbol>
<symbol id="icon-advantage-wifi" viewBox="0 0 32 32">
<path fill="none" stroke="#ff6b00" style="stroke: var(--color2, #ff6b00)" stroke-linejoin="round" stroke-linecap="round" stroke-miterlimit="4" stroke-width="1.3333" d="M11.124 19.453c0.621-0.666 1.372-1.198 2.207-1.562s1.735-0.554 2.645-0.558c0.911-0.003 1.813 0.18 2.65 0.539s1.592 0.885 2.218 1.547M8.199 15.392c0.994-1.066 2.195-1.916 3.531-2.5s2.776-0.887 4.233-0.892c1.457-0.005 2.9 0.288 4.239 0.863s2.547 1.416 3.548 2.475M4.298 11.755c1.491-1.599 3.293-2.875 5.296-3.75s4.164-1.33 6.35-1.338c2.186-0.008 4.35 0.433 6.359 1.294s3.82 2.125 5.322 3.713M16 25.333c-0.736 0-1.333-0.597-1.333-1.333s0.597-1.333 1.333-1.333 1.333 0.597 1.333 1.333c0 0.736-0.597 1.333-1.333 1.333z"></path>
</symbol>
<symbol id="icon-reviews-star" viewBox="0 0 31 32">
<path fill="#facd49" style="fill: var(--color1, #facd49)" d="M23.167 18.883c-0.335 0.324-0.489 0.794-0.412 1.254l1.149 6.361c0.097 0.539-0.131 1.085-0.582 1.396-0.442 0.323-1.030 0.362-1.513 0.103l-5.726-2.987c-0.199-0.106-0.42-0.163-0.646-0.169h-0.35c-0.122 0.018-0.241 0.057-0.349 0.116l-5.728 3.001c-0.283 0.142-0.604 0.193-0.918 0.142-0.765-0.145-1.276-0.874-1.151-1.643l1.151-6.361c0.076-0.464-0.078-0.936-0.412-1.266l-4.669-4.525c-0.39-0.379-0.526-0.948-0.348-1.461 0.173-0.512 0.615-0.886 1.149-0.97l6.426-0.932c0.489-0.050 0.918-0.348 1.138-0.787l2.832-5.805c0.067-0.129 0.154-0.248 0.259-0.349l0.116-0.091c0.061-0.067 0.131-0.123 0.208-0.168l0.141-0.052 0.22-0.091h0.544c0.486 0.050 0.914 0.341 1.138 0.776l2.869 5.779c0.207 0.423 0.609 0.716 1.073 0.787l6.426 0.932c0.543 0.078 0.997 0.453 1.177 0.97 0.169 0.518 0.023 1.087-0.375 1.461l-4.836 4.577z"></path>
</symbol>
<symbol id="icon-facebook-logo" viewBox="0 0 33 32">
<path fill="#fff" style="fill: var(--color1, #fff)" d="M33.328 16c0-8.836-7.164-16-16-16s-16 7.164-16 16c0 7.985 5.85 14.605 13.5 15.807v-11.181h-4.064v-4.626h4.064v-3.526c0-4.010 2.39-6.226 6.044-6.226 1.75 0 3.582 0.313 3.582 0.313v3.938h-2.018c-1.987 0-2.608 1.233-2.608 2.5v3.001h4.437l-0.709 4.626h-3.728v11.18c7.65-1.199 13.5-7.819 13.5-15.807l0 0z"></path>
<path d="M23.556 20.626l0.709-4.626h-4.437v-3.002c0-1.265 0.619-2.5 2.608-2.5h2.018v-3.938c0 0-1.831-0.313-3.582-0.313-3.654 0-6.044 2.214-6.044 6.226v3.526h-4.064v4.626h4.064v11.18c0.815 0.128 1.649 0.193 2.5 0.193s1.685-0.067 2.5-0.193v-11.181l3.728-0z"></path>
</symbol>
<symbol id="icon-youtube-logo" viewBox="0 0 44 32">
<path fill="#fff" style="fill: var(--color1, #fff)" d="M22.9 31.96l-8.849-0.166c-2.865-0.058-5.737 0.058-8.546-0.542-4.273-0.896-4.576-5.287-4.892-8.97-0.436-5.178-0.268-10.45 0.556-15.585 0.465-2.881 2.295-4.601 5.125-4.788 9.553-0.679 19.169-0.599 28.7-0.282 1.007 0.029 2.020 0.188 3.013 0.368 4.9 0.881 5.019 5.857 5.337 10.046 0.317 4.232 0.183 8.486-0.422 12.689-0.486 3.48-1.415 6.399-5.337 6.68-4.914 0.368-9.715 0.665-14.642 0.57 0-0.022-0.028-0.022-0.042-0.022zM17.698 23.149c3.703-2.181 7.335-4.326 11.017-6.493-3.71-2.181-7.335-4.326-11.017-6.493v12.985z"></path>
</symbol>
<symbol id="icon-twitter-logo" viewBox="0 0 38 32">
<path fill="#fff" style="fill: var(--color1, #fff)" d="M32.943 8.045c0.022 0.34 0.022 0.681 0.022 1.024 0 10.468-7.41 22.54-20.959 22.54v-0.006c-4.002 0.006-7.922-1.227-11.291-3.551 0.582 0.075 1.167 0.113 1.753 0.114 3.317 0.003 6.539-1.194 9.149-3.398-3.152-0.064-5.916-2.275-6.882-5.501 1.104 0.229 2.242 0.182 3.326-0.136-3.437-0.747-5.909-3.994-5.909-7.765 0-0.035 0-0.067 0-0.1 1.024 0.613 2.17 0.954 3.343 0.991-3.237-2.326-4.234-6.957-2.28-10.577 3.74 4.949 9.258 7.958 15.181 8.276-0.594-2.751 0.217-5.635 2.131-7.569 2.967-2.999 7.633-2.845 10.422 0.344 1.65-0.35 3.231-1.001 4.678-1.923-0.55 1.834-1.701 3.391-3.238 4.381 1.46-0.185 2.887-0.605 4.23-1.247-0.989 1.594-2.235 2.982-3.676 4.104z"></path>
</symbol>
<symbol id="icon-close" viewBox="0 0 32 32">
<path d="M23.733 10.304l-1.504-1.504-5.963 5.963-5.963-5.963-1.504 1.504 5.963 5.963-5.963 5.963 1.504 1.504 5.963-5.963 5.963 5.963 1.504-1.504-5.963-5.963 5.963-5.963z"></path>
</symbol>
<symbol id="icon-phone" viewBox="0 0 32 32">
<path d="M24.882 19.773l-3.268-0.373c-0.785-0.090-1.557 0.18-2.11 0.733l-2.367 2.367c-3.641-1.853-6.626-4.825-8.478-8.478l2.38-2.38c0.553-0.553 0.823-1.325 0.733-2.11l-0.373-3.242c-0.154-1.299-1.248-2.277-2.56-2.277h-2.226c-1.454 0-2.663 1.209-2.573 2.663 0.682 10.987 9.469 19.761 20.443 20.443 1.454 0.090 2.663-1.119 2.663-2.573v-2.226c0.013-1.3-0.965-2.393-2.264-2.547z"></path>
</symbol>
<symbol id="icon-user" viewBox="0 0 32 32">
<path d="M16 16c2.947 0 5.333-2.387 5.333-5.333s-2.387-5.333-5.333-5.333c-2.947 0-5.333 2.387-5.333 5.333s2.387 5.333 5.333 5.333zM16 18.667c-3.56 0-10.667 1.787-10.667 5.333v1.333c0 0.733 0.6 1.333 1.333 1.333h18.667c0.733 0 1.333-0.6 1.333-1.333v-1.333c0-3.547-7.107-5.333-10.667-5.333z"></path>
</symbol>

</defs>
</svg>
